PathFileType	4	(X/Y/Z)	D:\TRACE\v60_Jaco2_6-2-23\JustBodyDRS_Motion3_4-platform.trc
DataRate	CameraRate	NumFrames	NumMarkers	Units	OrigDataRate	OrigDataStartFrame	OrigNumFrames
100.00	100.00	      54	5	mm	100.00	2626	      7000
Frame#	Time	Left_Front			Right_Front			Left_Aft			Right_Aft			Post			
		X1	Y1	Z1	X2	Y2	Z2	X3	Y3	Z3	X4	Y4	Z4	X5	Y5	Z5	

2626	26.250	-780.07642	85.89891	-628.33691	790.78052	83.43091	-605.26215	-711.17175	-43.00190	498.91071	703.47107	-55.17688	603.51129	13.96579	1411.34583	-788.73834	
2627	26.260	-780.02539	85.57865	-628.54852	790.83020	83.30326	-605.28546	-711.17090	-42.75721	498.80173	703.44775	-54.98306	603.49597	14.42967	1410.78943	-789.70068	
2628	26.270	-780.03479	85.44428	-628.60162	790.92963	82.95366	-605.41565	-711.17041	-42.45309	498.69928	703.41675	-54.61740	603.48279	14.47639	1410.46753	-790.59442	
2629	26.280	-780.03815	85.32631	-628.74585	790.95587	82.64891	-605.59424	-711.13837	-42.01040	498.59210	703.33771	-54.34210	603.41516	14.18586	1410.38013	-791.36383	
2630	26.290	-780.09143	84.99570	-628.81464	790.91589	82.33510	-605.67804	-711.15497	-41.69376	498.47278	703.44708	-53.95076	603.28870	14.08999	1410.04492	-792.13293	
2631	26.300	-779.69989	84.09882	-628.22705	790.89258	82.04866	-605.76147	-711.21539	-41.53548	498.42105	703.53625	-53.67624	603.24799	14.33366	1409.39648	-793.07239	
2632	26.310	-779.97308	83.69082	-628.72638	790.86060	81.65084	-605.78876	-711.19940	-41.40105	498.37833	703.47900	-53.49327	603.21844	14.49431	1409.08362	-793.78253	
2633	26.320	-780.02826	83.51513	-628.80945	790.77765	81.32211	-605.88684	-711.17438	-41.26746	498.48587	703.86292	-53.07343	603.13727	14.28815	1408.67554	-794.39307	
2634	26.330	-779.98749	83.34747	-629.00037	790.80017	81.09201	-606.00494	-711.09106	-41.05974	498.43777	703.49518	-52.70729	603.50153	14.36468	1408.42432	-795.00116	
2635	26.340	-780.00592	83.12875	-629.21423	790.80023	80.83183	-606.17627	-711.22156	-40.39412	498.05164	703.57483	-52.59242	603.30145	14.18455	1408.16882	-795.58105	
2636	26.350	-780.08478	82.86819	-629.41785	790.69977	80.55231	-606.38116	-711.37170	-39.98339	498.10065	703.45410	-52.38118	603.26398	13.99950	1407.82910	-795.82288	
2637	26.360	-780.15601	82.68005	-629.26013	790.71582	80.16273	-606.45770	-711.22809	-40.12616	498.12164	703.36230	-52.24821	603.20673	14.15199	1406.96960	-796.68030	
2638	26.370	-779.99121	82.38169	-629.57117	790.74457	79.92319	-606.45831	-711.29291	-39.86370	498.13171	703.36108	-52.22269	603.19617	14.44302	1406.71326	-797.35565	
2639	26.380	-779.97760	82.16499	-629.67200	790.84937	79.60313	-606.55975	-711.28192	-39.63908	498.07370	703.34491	-51.85352	603.14038	14.34111	1406.38135	-798.12720	
2640	26.390	-780.04614	81.99937	-629.86938	790.86981	79.33170	-606.77618	-711.23627	-39.35009	498.08008	703.21014	-51.27959	602.98914	14.36856	1406.19446	-798.72980	
2641	26.400	-780.23657	81.51851	-630.15314	790.79907	78.99935	-606.95844	-711.32666	-39.11378	497.98596	703.30963	-51.07071	602.90533	14.19852	1405.76599	-799.89990	
2642	26.410	-780.18616	80.94767	-630.10638	790.58008	78.69701	-607.16602	-711.52216	-38.97016	497.85275	703.22162	-50.83124	602.83350	13.86168	1405.47876	-800.64624	
2643	26.420	-780.27814	80.72642	-630.14783	790.41479	78.36373	-607.18939	-711.71558	-38.89793	497.83847	703.04865	-50.68550	602.67725	14.06544	1405.02136	-801.65698	
2644	26.430	-780.28271	80.54237	-630.12366	790.30151	78.12970	-607.24780	-711.84497	-38.72095	497.74597	702.83307	-50.45622	602.70520	14.15020	1404.71521	-802.54639	
2645	26.440	-780.35083	80.27034	-630.15912	790.20917	77.84637	-607.36139	-711.88525	-38.53598	497.61423	702.77112	-50.07253	602.79468	13.81438	1404.56738	-803.32263	
2646	26.450	-780.47565	79.98110	-630.23822	790.07904	77.67373	-607.42090	-711.87531	-38.48109	497.62402	702.71082	-49.81321	602.81177	13.62511	1404.35962	-804.04126	
2647	26.460	-780.54401	79.31062	-630.19617	790.04431	77.46764	-607.48376	-712.00018	-38.30033	497.54041	702.67023	-49.55590	602.72351	13.60564	1403.92456	-804.69965	
2648	26.470	-780.74878	78.95446	-630.32782	789.98114	77.23264	-607.51074	-712.19678	-38.14210	497.46185	702.69281	-49.35018	602.66901	13.32428	1403.59790	-805.06171	
2649	26.480	-780.91278	78.80869	-630.48730	789.81812	76.86924	-607.55005	-712.41669	-37.99279	497.41547	702.54181	-49.27038	602.73248	13.22331	1403.19275	-805.41193	
2650	26.490	-781.24170	78.73904	-630.16022	789.64117	76.68416	-607.70728	-712.37762	-37.75295	497.41138	702.30804	-49.07661	602.72052	13.05337	1402.95471	-805.65759	
2651	26.500	-781.07245	78.59423	-630.51337	789.49487	76.49322	-607.80634	-712.45233	-37.52681	497.38177	702.10529	-48.81558	602.69971	12.75386	1402.63635	-805.95062	
2652	26.510	-781.21075	78.49361	-630.56317	789.28632	76.27808	-607.91296	-712.74170	-37.34020	497.35901	701.88086	-48.59261	602.64758	12.73373	1402.26331	-806.30194	
2653	26.520	-781.47418	78.38891	-630.68744	788.99597	76.07800	-607.92963	-712.70233	-37.40388	497.27625	701.67291	-48.40068	602.50061	12.78972	1402.00476	-806.63446	
2654	26.530	-781.71826	78.07742	-630.88837	788.62952	75.70850	-608.07410	-713.08063	-37.21582	497.38480	701.55615	-48.26187	602.46698	12.72268	1401.57703	-807.12439	
2655	26.540	-781.89368	77.84453	-631.03064	788.39264	75.53745	-608.08691	-713.30396	-37.07107	497.41772	701.19873	-48.12572	602.58496	12.46386	1401.35620	-807.58130	
2656	26.550	-782.21002	77.58283	-631.19006	788.30267	75.42366	-608.07483	-713.44855	-36.93999	497.46948	701.13684	-47.85891	602.43805	12.39199	1401.20227	-808.33258	
2657	26.560	-782.52020	77.33036	-631.53223	788.19067	75.35696	-608.09192	-713.64862	-36.74904	497.38464	700.91333	-47.63561	602.43939	12.17826	1401.12134	-808.85602	
2658	26.570	-782.67487	77.37768	-631.51123	788.05615	75.36358	-608.11639	-713.92938	-36.63490	497.32327	700.75824	-47.55102	602.38177	11.83964	1400.89172	-809.66431	
2659	26.580	-782.79260	77.37967	-631.38562	787.85419	75.05378	-608.29767	-714.16016	-36.49258	497.22678	700.57507	-47.42098	602.32654	11.69977	1400.56836	-810.26392	
2660	26.590	-782.99341	77.03983	-631.48175	787.69775	74.70692	-608.38251	-714.47363	-36.43002	497.12991	700.44427	-47.40028	602.23987	11.44299	1400.32275	-810.70007	
2661	26.600	-783.21173	76.77831	-631.51947	787.49207	74.58440	-608.41400	-714.67261	-36.44606	497.06216	700.20947	-47.31913	602.24371	11.25426	1400.14270	-811.06775	
2662	26.610	-783.50983	76.53214	-631.62268	787.22620	74.55160	-608.44458	-714.88037	-36.27379	497.01694	699.80096	-47.19807	602.20844	11.02058	1399.95935	-811.36835	
2663	26.620	-783.80597	76.44965	-631.62164	786.90662	74.49403	-608.51105	-715.15479	-35.86016	496.90714	699.45984	-47.02364	602.18091	10.63894	1399.74573	-811.77588	
2664	26.630	-784.13428	76.51870	-631.72101	786.59155	74.23475	-608.63141	-715.41534	-35.68533	496.80099	699.22192	-46.82021	602.14001	10.24172	1399.56641	-812.06171	
2665	26.640	-784.49146	76.49541	-631.74323	786.22186	74.04855	-608.61432	-715.76422	-35.64602	496.73761	698.85626	-46.75260	602.07214	9.93871	1399.39111	-812.23669	
2666	26.650	-784.59344	75.87718	-631.46332	786.01764	73.99065	-608.62000	-716.05542	-35.65468	496.72928	698.59930	-46.69588	602.02588	9.76111	1399.08984	-812.40570	
2667	26.660	-784.80994	75.73692	-631.44952	785.66852	73.94070	-608.68884	-716.29230	-35.68724	496.75214	698.25940	-46.69546	601.99811	9.45730	1398.87292	-812.79614	
2668	26.670	-785.11292	75.91183	-631.51984	785.34833	73.86686	-608.70557	-716.56464	-35.61777	496.74002	697.96222	-46.70964	601.97394	9.24309	1398.93518	-812.97437	
2669	26.680	-785.49469	76.01682	-631.68707	785.06775	73.87129	-608.74292	-716.85736	-35.55171	496.72458	697.87354	-46.59238	602.01184	8.83687	1399.02649	-813.34076	
2670	26.690	-785.94550	76.05196	-631.94873	784.72925	73.73067	-608.83655	-717.17291	-35.47235	496.81137	697.57672	-46.50916	602.02185	8.59603	1398.99084	-813.40259	
2671	26.700	-786.21881	75.75511	-632.04803	784.47290	73.59998	-608.88556	-717.43762	-35.51176	496.87009	697.06769	-46.37218	602.05133	8.41062	1398.74976	-813.40918	
2672	26.710	-786.29572	75.25346	-631.45966	784.18298	73.43285	-608.90546	-717.73529	-35.49092	496.85416	696.59369	-46.30788	602.06281	8.01680	1398.50134	-813.43732	
2673	26.720	-786.61591	75.26306	-631.42004	783.83978	73.41409	-608.97491	-718.13013	-35.38591	496.83588	696.40741	-46.10815	601.93970	7.55257	1398.43481	-813.43481	
2674	26.730	-786.84546	75.31307	-631.57568	783.49060	73.34982	-609.01892	-718.37103	-35.29140	496.79501	696.17468	-46.00458	601.92023	7.32559	1398.36414	-813.50134	
2675	26.740	-787.05768	75.34288	-631.64240	783.26154	73.27232	-609.04309	-718.62933	-35.25819	496.76794	695.94769	-45.97359	601.87201	6.87798	1398.37573	-813.66528	
2676	26.750	-787.54346	75.41178	-631.71301	782.81458	73.12997	-608.99799	-719.22443	-35.22548	496.72440	695.73248	-45.94895	601.79865	6.60451	1398.31763	-813.78668	
2677	26.760	-788.12878	75.21250	-631.79285	782.35748	73.01787	-608.94104	-719.51398	-35.30669	496.72842	695.35437	-45.96791	601.86957	6.20084	1398.10510	-814.11694	
2678	26.770	-788.44086	75.00938	-631.73535	782.18262	73.01811	-608.90326	-719.74225	-35.29708	496.76263	694.94843	-45.92682	601.84857	5.95424	1397.98792	-814.45074	
2679	26.780	-788.79266	74.95663	-631.83344	781.77966	72.99575	-608.94531	-720.00427	-35.21469	496.73553	694.59015	-45.83210	601.90723	5.64504	1397.98816	-814.80316	
